<svg width="1536" height="1536" xmlns="http://www.w3.org/2000/svg" preserveAspectRatio="xMidYMid meet" version="1.0">

 <g>
  <title>Layer 1</title>
  <rect stroke-width="0" id="svg_10" height="1324.00231" width="1344.00235" y="112.00154" x="101.99896" stroke="#000" fill="#fff"/>
  <g id="svg_1" fill="#000000" transform="translate(0 1536) scale(0.1 -0.1)">
   <path id="svg_2" d="m2762,15340c-5,-18 -14,-20 -100,-20c-72,0 -98,-4 -107,-15c-9,-10 -32,-15 -75,-15c-43,0 -66,-5 -75,-15c-8,-9 -30,-15 -60,-15c-30,0 -52,-6 -60,-15c-7,-9 -29,-15 -52,-15c-25,0 -41,-5 -44,-15c-5,-11 -21,-15 -60,-15c-39,0 -56,-4 -60,-15c-4,-8 -17,-15 -30,-15c-14,0 -27,-7 -30,-15c-4,-10 -20,-15 -45,-15c-26,0 -42,-5 -45,-15c-4,-8 -17,-15 -30,-15c-14,0 -27,-7 -30,-15c-4,-8 -17,-15 -30,-15c-14,0 -27,-7 -30,-15c-4,-10 -20,-15 -45,-15c-26,0 -42,-5 -45,-15c-4,-8 -16,-15 -28,-15c-12,0 -33,-13 -46,-30c-14,-16 -35,-29 -48,-30c-12,0 -25,-7 -28,-15c-4,-8 -17,-15 -30,-15c-14,0 -27,-7 -30,-15c-4,-8 -16,-15 -28,-15c-12,0 -33,-13 -46,-30c-14,-16 -34,-29 -44,-30c-11,0 -39,-20 -63,-45c-23,-25 -50,-45 -60,-45c-9,0 -36,-20 -60,-45c-23,-25 -50,-45 -59,-45c-21,0 -454,-433 -454,-454c0,-9 -20,-36 -45,-59c-25,-24 -45,-51 -45,-60c0,-10 -20,-37 -45,-60c-25,-24 -45,-52 -45,-63c-1,-10 -14,-30 -30,-44c-17,-13 -30,-34 -30,-46c0,-12 -7,-24 -15,-28c-8,-3 -15,-16 -15,-30c0,-13 -7,-26 -15,-30c-8,-3 -15,-16 -15,-28c-1,-13 -14,-34 -30,-48c-17,-13 -30,-34 -30,-46c0,-12 -7,-24 -15,-28c-10,-3 -15,-19 -15,-45c0,-25 -5,-41 -15,-45c-8,-3 -15,-16 -15,-30c0,-13 -7,-26 -15,-30c-8,-3 -15,-16 -15,-30c0,-13 -7,-26 -15,-30c-10,-3 -15,-19 -15,-45c0,-25 -5,-41 -15,-45c-8,-3 -15,-16 -15,-30c0,-13 -7,-26 -15,-30c-11,-4 -15,-21 -15,-60c0,-39 -4,-55 -15,-60c-10,-3 -15,-19 -15,-46c0,-27 -5,-43 -15,-46c-11,-4 -15,-21 -15,-59c0,-38 -4,-55 -15,-59c-11,-4 -15,-22 -15,-74c0,-50 -4,-73 -15,-82c-11,-9 -15,-35 -15,-106c0,-51 -4,-96 -10,-99c-14,-9 -14,-9851 0,-9860c6,-3 10,-48 10,-99c0,-71 4,-97 15,-106c10,-9 15,-32 15,-75c0,-43 5,-66 15,-75c10,-8 15,-31 15,-67c0,-38 4,-55 15,-59c10,-4 15,-20 15,-45c0,-26 5,-42 15,-45c11,-5 15,-21 15,-60c0,-39 4,-56 15,-60c8,-4 15,-17 15,-30c0,-14 7,-27 15,-30c10,-4 15,-20 15,-45c0,-26 5,-42 15,-45c8,-4 15,-17 15,-30c0,-14 7,-27 15,-30c8,-4 15,-17 15,-30c0,-14 7,-27 15,-30c10,-4 15,-20 15,-45c0,-26 5,-42 15,-45c8,-4 15,-16 15,-28c0,-12 13,-33 30,-46c16,-14 29,-35 30,-48c0,-12 7,-25 15,-28c8,-4 15,-17 15,-30c0,-14 7,-27 15,-30c8,-4 15,-16 15,-28c0,-12 13,-33 30,-46c16,-14 29,-34 30,-44c0,-11 20,-39 45,-63c25,-23 45,-50 45,-60c0,-9 20,-36 45,-60c25,-23 45,-50 45,-59c0,-21 433,-454 454,-454c9,0 36,-20 59,-45c24,-25 50,-45 59,-45c8,0 35,-20 60,-45c25,-25 54,-45 64,-45c11,-1 30,-14 44,-30c13,-17 34,-30 46,-30c12,0 24,-7 28,-15c3,-8 16,-15 30,-15c13,0 26,-7 30,-15c3,-8 16,-15 28,-15c13,-1 34,-14 48,-30c13,-17 34,-30 46,-30c12,0 24,-7 28,-15c3,-10 19,-15 45,-15c25,0 41,-5 45,-15c3,-8 16,-15 30,-15c13,0 26,-7 30,-15c3,-8 16,-15 30,-15c13,0 26,-7 30,-15c3,-10 19,-15 45,-15c25,0 41,-5 45,-15c3,-8 16,-15 30,-15c13,0 26,-7 30,-15c4,-11 21,-15 60,-15c39,0 55,-4 60,-15c3,-10 19,-15 44,-15c23,0 45,-6 52,-15c8,-9 30,-15 60,-15c30,0 52,-6 60,-15c9,-10 32,-15 76,-15c34,0 66,-4 69,-10c9,-14 10271,-14 10280,0c3,6 35,10 69,10c44,0 67,5 76,15c8,9 30,15 60,15c30,0 52,6 60,15c7,9 29,15 52,15c25,0 41,5 44,15c5,11 21,15 60,15c39,0 56,4 60,15c4,8 17,15 30,15c14,0 27,7 30,15c4,10 20,15 45,15c26,0 42,5 45,15c4,8 17,15 30,15c14,0 27,7 30,15c4,8 17,15 30,15c14,0 27,7 30,15c4,10 20,15 45,15c26,0 42,5 45,15c4,8 16,15 28,15c12,0 33,13 46,30c14,16 35,29 48,30c12,0 25,7 28,15c4,8 17,15 30,15c14,0 27,7 30,15c4,8 16,15 28,15c12,0 33,13 46,30c14,16 34,29 44,30c11,0 39,20 63,45c23,25 50,45 60,45c9,0 36,20 60,45c23,25 50,45 59,45c21,0 454,433 454,454c0,9 20,36 45,59c25,24 45,51 45,60c0,10 20,37 45,60c25,24 45,52 45,63c1,10 14,30 30,44c17,13 30,34 30,46c0,12 7,24 15,28c8,3 15,14 15,24c0,11 7,25 15,32c8,7 15,22 15,34c1,11 14,32 30,46c17,13 30,34 30,46c0,12 7,24 15,28c10,3 15,19 15,45c0,25 5,41 15,45c8,3 15,16 15,30c0,13 7,26 15,30c8,3 15,16 15,30c0,13 7,26 15,30c10,3 15,19 15,45c0,25 5,41 15,45c8,3 15,16 15,30c0,13 7,26 15,30c11,4 15,21 15,60c0,39 4,55 15,60c10,3 15,19 15,44c0,23 6,45 15,52c9,8 15,30 15,60c0,30 6,52 15,60c11,9 15,32 15,77c0,56 3,66 20,70c20,5 20,14 20,5138c0,5124 0,5133 -20,5138c-17,4 -20,14 -20,70c0,45 -4,68 -15,77c-10,8 -15,31 -15,67c0,38 -4,55 -15,59c-10,4 -15,20 -15,45c0,26 -5,42 -15,45c-10,4 -15,21 -15,54c0,30 -6,52 -15,60c-8,7 -15,23 -15,37c0,13 -7,26 -15,29c-10,4 -15,20 -15,45c0,26 -5,42 -15,45c-8,4 -15,17 -15,30c0,14 -7,27 -15,30c-8,4 -15,17 -15,30c0,14 -7,27 -15,30c-10,4 -15,20 -15,45c0,26 -5,42 -15,45c-8,4 -15,16 -15,28c0,12 -13,33 -30,46c-16,14 -29,35 -30,48c0,12 -7,25 -15,28c-8,4 -15,17 -15,30c0,14 -7,27 -15,30c-8,4 -15,16 -15,28c0,12 -13,33 -30,46c-16,14 -29,34 -30,44c0,11 -20,39 -45,63c-25,23 -45,50 -45,60c0,9 -20,36 -45,60c-25,23 -45,50 -45,59c0,21 -433,454 -454,454c-9,0 -36,20 -59,45c-24,25 -51,45 -60,45c-10,0 -37,20 -60,45c-24,25 -52,45 -63,45c-10,1 -30,14 -44,30c-13,17 -34,30 -46,30c-12,0 -24,7 -28,15c-3,8 -16,15 -30,15c-13,0 -26,7 -30,15c-3,8 -16,15 -28,15c-13,1 -34,14 -48,30c-13,17 -34,30 -46,30c-12,0 -24,7 -28,15c-3,10 -19,15 -46,15c-27,0 -43,5 -46,15c-4,8 -16,15 -29,15c-13,0 -25,7 -29,15c-3,8 -16,15 -30,15c-13,0 -26,7 -30,15c-3,10 -19,15 -45,15c-25,0 -41,5 -45,15c-3,8 -17,15 -31,15c-14,0 -28,7 -31,15c-4,11 -21,15 -59,15c-34,0 -57,5 -65,15c-7,8 -27,15 -45,15c-18,0 -38,7 -45,15c-8,9 -30,15 -60,15c-30,0 -52,6 -60,15c-9,10 -32,15 -75,15c-43,0 -66,5 -75,15c-9,11 -35,15 -107,15c-86,0 -95,2 -100,20c-5,20 -14,20 -4928,20c-4914,0 -4923,0 -4928,-20zm1423,-2550c69,-10 281,-31 545,-55c335,-31 484,-45 615,-60c74,-9 194,-22 265,-30c72,-8 171,-19 220,-25c289,-34 721,-83 850,-95c83,-8 191,-19 240,-25c179,-20 483,-51 630,-65c207,-20 312,-31 515,-55c166,-20 365,-40 585,-60c120,-11 268,-27 430,-45c66,-8 197,-22 290,-30c94,-9 252,-25 352,-37c176,-20 188,-20 320,-4c725,86 848,85 1052,-10c216,-100 376,-322 416,-576c9,-55 28,-62 132,-43c146,27 329,31 431,10c119,-24 238,-81 307,-146c70,-67 138,-161 177,-247c58,-127 57,-103 58,-1766c1,-1672 7,-2248 24,-2272c6,-8 56,-25 111,-38c159,-38 203,-51 320,-99c213,-86 284,-126 445,-247c143,-109 241,-203 341,-330c50,-63 201,-288 221,-330c63,-129 127,-290 151,-380c83,-308 95,-605 35,-915c-5,-27 -13,-68 -17,-90c-4,-22 -13,-56 -19,-75c-6,-19 -20,-62 -31,-95c-40,-122 -141,-338 -205,-437c-56,-88 -142,-197 -223,-286c-255,-280 -553,-456 -943,-556c-382,-98 -908,-47 -1242,120c-225,113 -415,240 -528,354c-156,157 -380,454 -380,504c0,7 -11,23 -24,35l-23,22l-214,-41c-118,-22 -252,-47 -299,-56c-47,-8 -116,-21 -155,-29c-196,-39 -416,-79 -655,-120c-146,-25 -330,-57 -410,-71c-156,-27 -273,-47 -415,-69c-49,-8 -117,-19 -150,-24c-33,-6 -172,-29 -310,-51c-137,-22 -295,-49 -350,-60c-55,-10 -131,-24 -170,-30c-38,-7 -115,-20 -170,-31c-55,-10 -172,-29 -260,-44c-88,-14 -230,-37 -315,-51c-215,-35 -255,-41 -420,-64c-128,-18 -339,-49 -440,-65c-19,-3 -100,-14 -180,-25c-80,-11 -203,-30 -275,-41c-245,-38 -320,-48 -420,-59c-55,-6 -145,-17 -200,-25c-288,-43 -788,-104 -1395,-171c-199,-22 -329,-15 -435,24c-150,54 -270,151 -356,284c-55,87 -74,141 -84,246c-14,152 -58,515 -75,627c-5,33 -14,101 -19,150c-6,50 -17,142 -26,205c-8,63 -22,169 -30,235c-8,66 -21,174 -30,240c-28,217 -45,358 -60,503c-8,79 -17,153 -20,165c-3,12 -10,63 -15,112c-5,50 -14,137 -20,195c-5,58 -15,128 -20,155c-5,28 -14,93 -19,145c-11,113 -55,489 -76,650c-8,63 -21,178 -30,255c-8,77 -22,199 -30,270c-8,72 -21,198 -30,280c-8,83 -20,188 -25,235c-6,47 -14,135 -20,195c-5,61 -11,117 -14,125c-3,8 -10,67 -16,130c-15,173 -39,412 -45,440c-3,14 -9,72 -14,130c-12,133 -27,285 -46,470c-25,248 -35,361 -45,480c-5,63 -14,156 -21,205c-22,168 4,347 67,469c97,187 250,318 454,386c65,22 390,73 675,105c83,9 157,20 165,24c29,15 41,64 80,333c76,523 89,598 124,698c79,229 297,400 566,443c49,8 186,6 250,-3zm8950,-2145c239,-33 362,-86 475,-207c101,-106 150,-190 191,-323c21,-71 26,-255 7,-325c-13,-51 -35,-149 -59,-265c-20,-96 -40,-189 -59,-270c-7,-33 -21,-94 -29,-135c-65,-315 -77,-368 -142,-650c-57,-244 -61,-262 -73,-310c-6,-25 -18,-79 -26,-120c-8,-41 -34,-158 -57,-260c-22,-102 -44,-205 -49,-230c-11,-66 -36,-167 -44,-179c-8,-15 -21,-14 -58,4c-42,19 -114,44 -156,55c-19,5 -37,14 -42,21c-4,7 -10,53 -13,103c-9,144 -12,3058 -3,3084c10,26 3,26 137,7zm-11241,-4530c29,-308 62,-630 71,-710c42,-374 62,-537 85,-695c8,-52 21,-156 30,-230c9,-74 23,-177 31,-229c8,-56 11,-98 5,-104c-11,-11 -86,14 -166,56c-69,36 -184,147 -236,227c-20,30 -49,87 -65,125c-24,61 -29,86 -32,194c-3,86 0,143 11,190c25,109 45,217 73,386c14,88 30,178 34,200c4,22 13,74 19,115c7,41 17,100 23,130c5,30 14,82 18,115c4,33 12,76 18,95c6,19 18,76 27,125c25,138 25,139 35,129c4,-5 13,-58 19,-119zm5966,-2895c343,-32 415,-40 610,-65c66,-8 165,-22 220,-30c55,-8 170,-24 255,-35c252,-33 543,-73 675,-95c259,-41 493,-77 725,-111c96,-14 216,-32 265,-40c50,-7 141,-19 202,-25c112,-12 113,-12 166,15c81,39 106,81 134,228c12,67 27,126 32,131c6,6 47,-9 108,-38c215,-103 304,-149 314,-161c12,-14 -27,-266 -62,-403c-40,-155 -117,-273 -238,-364c-137,-103 -270,-133 -490,-111c-68,7 -135,15 -150,18c-14,3 -75,13 -136,21c-60,8 -153,21 -205,30c-111,18 -267,41 -395,60c-49,7 -160,25 -245,39c-230,39 -267,45 -355,57c-44,6 -120,18 -170,25c-49,8 -133,21 -185,29c-52,7 -140,21 -195,30c-55,9 -131,21 -170,25c-38,5 -133,19 -210,30c-77,11 -189,28 -250,36c-60,8 -157,22 -215,30c-58,8 -141,19 -185,24c-44,6 -102,14 -130,19c-27,5 -72,12 -100,16c-64,8 -205,29 -425,65c-96,15 -224,36 -285,45c-200,31 -411,77 -453,99c-24,13 -23,13 26,18c29,3 71,14 94,26c139,67 197,88 323,119c77,19 149,40 161,48c11,7 45,15 75,18c30,2 74,11 99,20c25,8 81,23 125,32c44,9 116,29 160,45c44,16 104,32 133,36c30,4 67,17 85,30c37,26 99,29 262,14z"/>
   <path id="svg_3" d="m3947,12351c-75,-26 -125,-73 -167,-156c-25,-51 -29,-74 -79,-445c-47,-346 -48,-352 -38,-362c10,-10 104,1 562,63c80,10 240,31 355,45c116,14 260,32 320,40c61,8 187,23 280,34c94,11 251,31 350,45c165,23 782,102 1365,175c389,49 612,78 855,115c206,30 220,34 209,45c-9,9 -225,37 -494,65c-347,36 -730,77 -885,95c-605,71 -625,73 -1065,115c-85,9 -231,22 -325,30c-93,8 -183,17 -200,20c-16,2 -140,16 -275,30c-135,14 -330,34 -435,45c-232,24 -266,24 -333,1z"/>
   <path id="svg_4" d="m10485,11806c-85,-13 -204,-29 -265,-35c-60,-7 -155,-18 -210,-26c-143,-20 -374,-50 -645,-85c-195,-25 -449,-60 -620,-84c-46,-7 -244,-32 -405,-51c-71,-9 -177,-22 -235,-30c-58,-8 -150,-19 -205,-25c-55,-6 -161,-20 -235,-31c-122,-17 -538,-75 -825,-115c-169,-23 -331,-43 -425,-54c-159,-18 -424,-51 -905,-116c-104,-14 -257,-34 -340,-45c-82,-11 -208,-29 -280,-39c-201,-30 -449,-61 -835,-104c-124,-14 -272,-32 -330,-40c-58,-8 -161,-22 -230,-31c-69,-9 -168,-23 -220,-30c-52,-8 -158,-21 -235,-30c-77,-9 -169,-20 -205,-25c-36,-6 -138,-19 -228,-31c-89,-11 -181,-27 -204,-35c-87,-30 -160,-118 -175,-210c-3,-20 -1,-80 6,-133c6,-53 16,-136 22,-186c6,-49 17,-146 25,-215c8,-69 19,-174 24,-235c5,-60 12,-121 15,-135c3,-14 9,-77 15,-140c14,-150 20,-180 37,-187c14,-6 75,5 178,32c28,7 86,21 130,30c44,10 100,23 125,30c25,7 79,20 120,29c41,9 102,23 135,32c33,9 87,22 120,31c33,8 80,21 105,28c25,7 81,20 125,30c44,10 204,49 355,88c343,86 476,119 660,163c172,41 167,40 395,99c99,26 196,51 215,55c19,4 71,17 115,30c89,24 184,48 325,80c103,23 870,211 960,235c30,8 141,35 245,59c105,25 237,57 295,71c58,13 164,40 235,58c72,19 162,41 200,50c275,64 396,94 504,123c68,19 230,59 360,89c130,31 288,69 351,85c266,67 671,169 755,188c154,37 681,168 865,215c96,25 238,60 315,77c77,18 217,52 310,76c208,53 220,62 212,161c-8,103 -78,200 -183,253c-69,35 -206,37 -414,6z"/>
   <path id="svg_5" d="m7545,9865c-280,-27 -528,-94 -700,-188c-121,-66 -138,-76 -192,-113c-70,-49 -216,-179 -268,-240c-93,-107 -169,-233 -231,-387c-13,-32 -30,-62 -39,-67c-8,-4 -80,-1 -159,8c-122,13 -159,13 -245,2c-146,-19 -237,-44 -344,-96c-152,-73 -317,-244 -411,-427c-57,-108 -80,-188 -117,-404c-12,-67 -21,-96 -37,-111c-21,-19 -85,-36 -197,-53c-159,-23 -297,-107 -380,-230c-197,-290 -163,-733 73,-956c80,-76 144,-110 262,-139c35,-8 5718,-6 5785,2c83,11 158,57 270,167c159,154 291,359 340,527c77,259 62,527 -42,770c-168,393 -585,724 -1047,829c-126,29 -245,49 -341,57c-116,9 -127,15 -154,77c-116,262 -186,368 -345,527c-218,218 -508,358 -856,416c-112,19 -372,43 -445,42c-30,0 -111,-6 -180,-13z"/>
   <path id="svg_6" d="m12175,6685c-52,-8 -129,-23 -170,-35c-41,-12 -84,-24 -95,-27c-90,-24 -270,-110 -378,-181c-195,-128 -402,-362 -509,-577c-91,-180 -158,-465 -158,-666c0,-373 110,-685 343,-976c179,-224 434,-404 691,-488c149,-48 415,-90 511,-80c284,30 354,45 515,110c223,90 345,168 489,315c421,428 567,1014 394,1575c-71,228 -240,489 -432,667c-102,95 -185,149 -351,229c-154,74 -189,87 -320,113c-192,39 -351,45 -530,21zm282,-537c52,-16 120,-82 148,-144c17,-37 21,-60 17,-100c-13,-122 -99,-209 -220,-221c-104,-9 -186,36 -233,129c-17,34 -24,64 -24,105c0,168 151,279 312,231zm29,-665c35,-19 64,-43 84,-71l30,-44l3,-426c4,-501 -3,-615 -41,-665c-38,-50 -89,-72 -172,-72c-79,0 -141,27 -179,78c-20,28 -21,41 -26,545c-3,284 -1,532 3,550c18,72 105,130 198,131c31,1 63,-8 100,-26z"/>
   <path id="svg_7" d="m3172,5791c-14,-17 -14,-45 -3,-715l9,-508l26,-24l26,-24l688,0c617,0 693,2 723,16c67,32 66,14 59,627c-4,320 -11,566 -17,585c-19,64 19,61 -776,59c-613,-1 -725,-4 -735,-16z"/>
   <path id="svg_8" d="m5312,5713c-51,-8 -61,-40 -58,-186c3,-138 8,-159 43,-178c27,-14 4863,-22 4921,-8c60,16 72,44 72,174c-1,123 -10,148 -70,185c-32,20 -41,20 -2456,19c-1333,-1 -2436,-4 -2452,-6z"/>
   <path id="svg_9" d="m5343,4953c-26,-3 -42,-11 -49,-25c-15,-27 -7,-275 9,-305c7,-12 24,-25 39,-30c17,-6 598,-8 1501,-6c1636,4 1508,-2 1530,72c15,48 15,139 1,196c-13,52 -40,79 -94,94c-28,8 -464,10 -1470,9c-786,-1 -1447,-3 -1467,-5z"/>
  </g>
 </g>
</svg>